<?xml version="1.0" encoding="UTF-8"?>
<!DOCTYPE svg PUBLIC "-//W3C//DTD SVG 1.1//EN" "http://www.w3.org/Graphics/SVG/1.1/DTD/svg11.dtd">
<svg xmlns="http://www.w3.org/2000/svg" version="1.1" width="512px" height="512px" style="shape-rendering:geometricPrecision; text-rendering:geometricPrecision; image-rendering:optimizeQuality; fill-rule:evenodd; clip-rule:evenodd" xmlns:xlink="http://www.w3.org/1999/xlink">
<g><path style="opacity:0.976" fill="#141413" d="M 338.5,390.5 C 339.117,388.771 340.117,387.271 341.5,386C 356.83,385.5 372.163,385.333 387.5,385.5C 391.944,340.838 396.277,296.171 400.5,251.5C 404.157,224.618 407.157,197.618 409.5,170.5C 410.404,169.791 410.737,168.791 410.5,167.5C 315.999,167.167 221.665,167.501 127.5,168.5C 122.877,212.857 118.043,257.191 113,301.5C 111.961,302.71 110.794,303.71 109.5,304.5C 103.677,305.006 101.344,302.34 102.5,296.5C 109.557,228.156 116.723,159.822 124,91.5C 124.163,89.324 124.996,87.4907 126.5,86C 140.073,84.7018 153.739,84.0351 167.5,84C 175.833,58.9967 192.833,49.9967 218.5,57C 230.089,62.4991 237.422,71.4991 240.5,84C 258.509,84.833 276.509,84.6663 294.5,83.5C 301.122,61.7286 315.789,52.2286 338.5,55C 354.206,58.8704 363.539,68.7037 366.5,84.5C 386.169,84.3334 405.836,84.5 425.5,85C 426.931,85.4652 428.097,86.2986 429,87.5C 442.64,188.477 456.14,289.477 469.5,390.5C 469.046,394.12 467.046,396.287 463.5,397C 423.5,397.667 383.5,397.667 343.5,397C 340.045,396.273 338.379,394.107 338.5,390.5 Z M 228.5,89.5 C 222.167,89.5 215.833,89.5 209.5,89.5C 209.084,87.2475 207.751,85.7475 205.5,85C 197.167,84.6667 188.833,84.3333 180.5,84C 186.578,69.6274 197.245,64.2941 212.5,68C 221.841,72.1801 227.174,79.3468 228.5,89.5 Z M 355.5,89.5 C 349.833,89.5 344.167,89.5 338.5,89.5C 338.084,87.2475 336.751,85.7475 334.5,85C 325.482,84.832 316.482,84.332 307.5,83.5C 316.483,66.0055 329.483,62.1722 346.5,72C 351.488,76.8187 354.488,82.652 355.5,89.5 Z"/></g>
<g><path style="opacity:0.999" fill="#fd2745" d="M 209.5,89.5 C 215.833,89.5 222.167,89.5 228.5,89.5C 228.621,101.876 222.954,110.376 211.5,115C 207.713,115.16 204.046,115.826 200.5,117C 197.941,119.925 197.941,122.925 200.5,126C 218.477,127.596 230.977,120.096 238,103.5C 238.662,101.187 239.162,98.854 239.5,96.5C 271.168,96.6666 302.835,96.5 334.5,96C 337.222,94.7275 338.556,92.5608 338.5,89.5C 344.167,89.5 349.833,89.5 355.5,89.5C 354.948,106.799 345.948,115.633 328.5,116C 325.875,118.196 324.875,121.03 325.5,124.5C 312.297,131.066 298.297,135.566 283.5,138C 254.551,142.256 225.551,142.589 196.5,139C 175.005,136.382 153.671,132.882 132.5,128.5C 132.5,127.167 132.5,125.833 132.5,124.5C 133.227,115.171 133.894,105.838 134.5,96.5C 158.502,96.6666 182.502,96.5 206.5,96C 208.919,94.4912 209.919,92.3245 209.5,89.5 Z"/></g>
<g><path style="opacity:1" fill="#e0173d" d="M 411.5,154.5 C 317.712,156.494 223.712,157.16 129.5,156.5C 129.5,155.167 129.5,153.833 129.5,152.5C 130.313,143.006 131.313,133.673 132.5,124.5C 132.5,125.833 132.5,127.167 132.5,128.5C 153.671,132.882 175.005,136.382 196.5,139C 225.551,142.589 254.551,142.256 283.5,138C 298.297,135.566 312.297,131.066 325.5,124.5C 341.032,128.334 353.198,123.334 362,109.5C 364.079,105.347 365.579,101.014 366.5,96.5C 383.5,96.5 400.5,96.5 417.5,96.5C 415.56,115.841 413.56,135.175 411.5,154.5 Z"/></g>
<g><path style="opacity:1" fill="#fff3f4" d="M 157.5,116.5 C 166.865,115.936 168.865,119.436 163.5,127C 155.986,126.814 153.986,123.314 157.5,116.5 Z"/></g>
<g><path style="opacity:1" fill="#fef3f5" d="M 383.5,116.5 C 390,115.499 392.5,118.165 391,124.5C 387.303,128.582 383.97,128.249 381,123.5C 380.162,120.519 380.995,118.186 383.5,116.5 Z"/></g>
<g><path style="opacity:1" fill="#2a4089" d="M 440.5,264.5 C 436.921,285.156 430.421,304.823 421,323.5C 416.612,329.67 411.112,331.004 404.5,327.5C 410.505,266.122 417.005,204.788 424,143.5C 425.241,147.699 426.241,152.033 427,156.5C 431.436,192.529 435.936,228.529 440.5,264.5 Z"/></g>
<g><path style="opacity:1" fill="#741627" d="M 129.5,152.5 C 129.5,153.833 129.5,155.167 129.5,156.5C 223.712,157.16 317.712,156.494 411.5,154.5C 411.5,155.5 411.5,156.5 411.5,157.5C 317.167,157.5 222.833,157.5 128.5,157.5C 128.216,155.585 128.549,153.919 129.5,152.5 Z"/></g>
<g><path style="opacity:1" fill="#4c4f50" d="M 127.5,168.5 C 221.665,167.501 315.999,167.167 410.5,167.5C 410.737,168.791 410.404,169.791 409.5,170.5C 315.839,168.502 221.839,167.836 127.5,168.5 Z"/></g>
<g><path style="opacity:1" fill="#e9f3fa" d="M 127.5,168.5 C 221.839,167.836 315.839,168.502 409.5,170.5C 407.157,197.618 404.157,224.618 400.5,251.5C 370.345,291.096 330.679,315.763 281.5,325.5C 265.497,325.333 249.497,325.5 233.5,326C 231.859,327.129 230.859,328.629 230.5,330.5C 220.812,330.62 211.146,330.287 201.5,329.5C 200.738,327.738 199.404,326.738 197.5,326.5C 188.676,325.67 179.676,325.17 170.5,325C 149.87,320.956 129.537,315.789 109.5,309.5C 109.5,307.833 109.5,306.167 109.5,304.5C 110.794,303.71 111.961,302.71 113,301.5C 118.043,257.191 122.877,212.857 127.5,168.5 Z"/></g>
<g><path style="opacity:1" fill="#1f1f1f" d="M 159.5,214.5 C 172.171,214.333 184.838,214.5 197.5,215C 202.414,218.171 202.747,221.837 198.5,226C 185.5,226.667 172.5,226.667 159.5,226C 154.229,222.222 154.229,218.389 159.5,214.5 Z"/></g>
<g><path style="opacity:1" fill="#1f1f1f" d="M 238.5,214.5 C 251.504,214.333 264.504,214.5 277.5,215C 282.833,218.667 282.833,222.333 277.5,226C 264.5,226.667 251.5,226.667 238.5,226C 234.555,222.169 234.555,218.336 238.5,214.5 Z"/></g>
<g><path style="opacity:1" fill="#1f1f1f" d="M 318.5,214.5 C 331.171,214.333 343.838,214.5 356.5,215C 361.414,218.171 361.747,221.837 357.5,226C 344.5,226.667 331.5,226.667 318.5,226C 313.229,222.222 313.229,218.389 318.5,214.5 Z"/></g>
<g><path style="opacity:1" fill="#b9e0f9" d="M 400.5,251.5 C 396.277,296.171 391.944,340.838 387.5,385.5C 372.163,385.333 356.83,385.5 341.5,386C 340.117,387.271 339.117,388.771 338.5,390.5C 330.833,390.5 323.167,390.5 315.5,390.5C 315.667,378.162 315.5,365.829 315,353.5C 313.871,351.859 312.371,350.859 310.5,350.5C 302.35,349.507 294.017,349.174 285.5,349.5C 285.823,342.978 285.49,336.645 284.5,330.5C 283.925,328.589 282.925,326.922 281.5,325.5C 330.679,315.763 370.345,291.096 400.5,251.5 Z"/></g>
<g><path style="opacity:1" fill="#0c255f" d="M 440.5,264.5 C 446.317,304.631 451.65,344.964 456.5,385.5C 437.167,385.5 417.833,385.5 398.5,385.5C 399.842,366.095 401.842,346.761 404.5,327.5C 411.112,331.004 416.612,329.67 421,323.5C 430.421,304.823 436.921,285.156 440.5,264.5 Z"/></g>
<g><path style="opacity:1" fill="#151515" d="M 158.5,270.5 C 171.837,270.333 185.171,270.5 198.5,271C 201.287,273.167 202.12,276.001 201,279.5C 200.25,280.126 199.416,280.626 198.5,281C 185.167,281.667 171.833,281.667 158.5,281C 154.565,277.504 154.565,274.004 158.5,270.5 Z"/></g>
<g><path style="opacity:1" fill="#151514" d="M 238.5,270.5 C 251.504,270.333 264.504,270.5 277.5,271C 282.329,273.837 282.663,277.171 278.5,281C 264.833,281.667 251.167,281.667 237.5,281C 234.615,277.056 234.948,273.556 238.5,270.5 Z"/></g>
<g><path style="opacity:1" fill="#151515" d="M 317.5,270.5 C 330.837,270.333 344.171,270.5 357.5,271C 360.287,273.167 361.12,276.001 360,279.5C 359.25,280.126 358.416,280.626 357.5,281C 344.167,281.667 330.833,281.667 317.5,281C 313.565,277.504 313.565,274.004 317.5,270.5 Z"/></g>
<g><path style="opacity:1" fill="#b9e1f9" d="M 109.5,309.5 C 129.537,315.789 149.87,320.956 170.5,325C 179.676,325.17 188.676,325.67 197.5,326.5C 184.496,326.333 171.496,326.5 158.5,327C 154.928,329.626 154.595,332.626 157.5,336C 171.072,337.63 184.739,337.963 198.5,337C 201.041,335.152 202.041,332.652 201.5,329.5C 211.146,330.287 220.812,330.62 230.5,330.5C 230.5,343.833 230.5,357.167 230.5,370.5C 196.167,370.5 161.833,370.5 127.5,370.5C 127.829,356.656 127.496,342.99 126.5,329.5C 125.71,328.206 124.71,327.039 123.5,326C 118.177,325.501 112.844,325.334 107.5,325.5C 107.989,320.103 108.656,314.769 109.5,309.5 Z"/></g>
<g><path style="opacity:0.981" fill="#151413" d="M 107.5,325.5 C 112.844,325.334 118.177,325.501 123.5,326C 124.71,327.039 125.71,328.206 126.5,329.5C 126.5,343.5 126.5,357.5 126.5,371.5C 161.337,371.832 196.004,371.498 230.5,370.5C 230.5,357.167 230.5,343.833 230.5,330.5C 230.859,328.629 231.859,327.129 233.5,326C 249.497,325.5 265.497,325.333 281.5,325.5C 282.925,326.922 283.925,328.589 284.5,330.5C 284.5,337.167 284.5,343.833 284.5,350.5C 293.167,350.5 301.833,350.5 310.5,350.5C 312.371,350.859 313.871,351.859 315,353.5C 315.5,365.829 315.667,378.162 315.5,390.5C 315.667,403.504 315.5,416.504 315,429.5C 314.097,430.701 312.931,431.535 311.5,432C 302.84,432.5 294.173,432.666 285.5,432.5C 285.666,439.175 285.5,445.842 285,452.5C 284.535,453.931 283.701,455.097 282.5,456C 265.833,456.667 249.167,456.667 232.5,456C 232,455.5 231.5,455 231,454.5C 230.5,440.171 230.333,425.837 230.5,411.5C 196.167,411.5 161.833,411.5 127.5,411.5C 127.667,425.504 127.5,439.504 127,453.5C 126.167,454.333 125.333,455.167 124.5,456C 108.167,456.667 91.8333,456.667 75.5,456C 74.3333,455.5 73.5,454.667 73,453.5C 72.5004,446.508 72.3337,439.508 72.5,432.5C 63.8269,432.666 55.1603,432.5 46.5,432C 45.0692,431.535 43.9025,430.701 43,429.5C 41.8509,416.591 41.3509,403.591 41.5,390.5C 41.3509,377.409 41.8509,364.409 43,351.5C 43.7504,350.874 44.5838,350.374 45.5,350C 54.4938,349.5 63.4938,349.334 72.5,349.5C 72.3337,342.492 72.5004,335.492 73,328.5C 73.3742,327.584 73.8742,326.75 74.5,326C 85.495,325.5 96.495,325.333 107.5,325.5 Z"/></g>
<g><path style="opacity:1" fill="#171817" d="M 197.5,326.5 C 199.404,326.738 200.738,327.738 201.5,329.5C 202.041,332.652 201.041,335.152 198.5,337C 184.739,337.963 171.072,337.63 157.5,336C 154.595,332.626 154.928,329.626 158.5,327C 171.496,326.5 184.496,326.333 197.5,326.5 Z"/></g>
<g><path style="opacity:1" fill="#171817" d="M 317.5,326.5 C 331.171,326.333 344.837,326.5 358.5,327C 361.343,330.619 361.01,333.952 357.5,337C 344.5,337.667 331.5,337.667 318.5,337C 313.686,333.914 313.352,330.414 317.5,326.5 Z"/></g>
<g><path style="opacity:1" fill="#821a2a" d="M 115.5,337.5 C 105.167,337.5 94.8333,337.5 84.5,337.5C 84.5,361.5 84.5,385.5 84.5,409.5C 84.5,421.167 84.5,432.833 84.5,444.5C 94.8333,444.5 105.167,444.5 115.5,444.5C 105.013,445.494 94.3464,445.828 83.5,445.5C 83.5,409.167 83.5,372.833 83.5,336.5C 94.3464,336.172 105.013,336.506 115.5,337.5 Z"/></g>
<g><path style="opacity:1" fill="#fe2645" d="M 115.5,337.5 C 115.5,351.833 115.5,366.167 115.5,380.5C 113.188,387.919 110.355,395.253 107,402.5C 105.262,406.241 102.762,409.408 99.5,412C 93.8803,414.508 88.8803,413.675 84.5,409.5C 84.5,385.5 84.5,361.5 84.5,337.5C 94.8333,337.5 105.167,337.5 115.5,337.5 Z"/></g>
<g><path style="opacity:1" fill="#fe2645" d="M 273.5,337.5 C 273.5,350.167 273.5,362.833 273.5,375.5C 269.019,387.461 263.185,398.795 256,409.5C 250.916,415.107 246.416,414.774 242.5,408.5C 242.5,384.833 242.5,361.167 242.5,337.5C 252.833,337.5 263.167,337.5 273.5,337.5 Z"/></g>
<g><path style="opacity:1" fill="#8ba9bb" d="M 284.5,330.5 C 285.49,336.645 285.823,342.978 285.5,349.5C 294.017,349.174 302.35,349.507 310.5,350.5C 301.833,350.5 293.167,350.5 284.5,350.5C 284.5,343.833 284.5,337.167 284.5,330.5 Z"/></g>
<g><path style="opacity:1" fill="#f3cc0b" d="M 72.5,391.5 C 70.5095,396.006 67.5095,399.839 63.5,403C 59.5789,404.139 56.2456,403.305 53.5,400.5C 53.5,387.5 53.5,374.5 53.5,361.5C 59.8333,361.5 66.1667,361.5 72.5,361.5C 72.5,371.5 72.5,381.5 72.5,391.5 Z"/></g>
<g><path style="opacity:1" fill="#f0c90b" d="M 303.5,361.5 C 303.666,370.173 303.5,378.84 303,387.5C 299.611,393.723 294.778,398.39 288.5,401.5C 286.927,401.248 285.594,400.582 284.5,399.5C 284.5,386.833 284.5,374.167 284.5,361.5C 290.833,361.5 297.167,361.5 303.5,361.5 Z"/></g>
<g><path style="opacity:1" fill="#8fadbf" d="M 126.5,329.5 C 127.496,342.99 127.829,356.656 127.5,370.5C 161.833,370.5 196.167,370.5 230.5,370.5C 196.004,371.498 161.337,371.832 126.5,371.5C 126.5,357.5 126.5,343.5 126.5,329.5 Z"/></g>
<g><path style="opacity:1" fill="#e1173e" d="M 273.5,375.5 C 273.5,398.5 273.5,421.5 273.5,444.5C 263.167,444.5 252.833,444.5 242.5,444.5C 242.5,432.5 242.5,420.5 242.5,408.5C 246.416,414.774 250.916,415.107 256,409.5C 263.185,398.795 269.019,387.461 273.5,375.5 Z"/></g>
<g><path style="opacity:1" fill="#e1173e" d="M 115.5,380.5 C 115.5,401.833 115.5,423.167 115.5,444.5C 105.167,444.5 94.8333,444.5 84.5,444.5C 84.5,432.833 84.5,421.167 84.5,409.5C 88.8803,413.675 93.8803,414.508 99.5,412C 102.762,409.408 105.262,406.241 107,402.5C 110.355,395.253 113.188,387.919 115.5,380.5 Z"/></g>
<g><path style="opacity:1" fill="#f2ca0b" d="M 127.5,382.5 C 152.5,382.5 177.5,382.5 202.5,382.5C 200.762,386.388 197.762,388.888 193.5,390C 188.65,391.732 183.65,392.732 178.5,393C 161.448,393.887 144.448,393.387 127.5,391.5C 127.5,388.5 127.5,385.5 127.5,382.5 Z"/></g>
<g><path style="opacity:1" fill="#ec701a" d="M 202.5,382.5 C 211.833,382.5 221.167,382.5 230.5,382.5C 230.5,387.833 230.5,393.167 230.5,398.5C 196.167,398.5 161.833,398.5 127.5,398.5C 127.5,396.167 127.5,393.833 127.5,391.5C 144.448,393.387 161.448,393.887 178.5,393C 183.65,392.732 188.65,391.732 193.5,390C 197.762,388.888 200.762,386.388 202.5,382.5 Z"/></g>
<g><path style="opacity:1" fill="#df6c1a" d="M 303.5,361.5 C 304.497,380.993 304.83,400.66 304.5,420.5C 297.833,420.5 291.167,420.5 284.5,420.5C 284.5,413.5 284.5,406.5 284.5,399.5C 285.594,400.582 286.927,401.248 288.5,401.5C 294.778,398.39 299.611,393.723 303,387.5C 303.5,378.84 303.666,370.173 303.5,361.5 Z"/></g>
<g><path style="opacity:1" fill="#eb701a" d="M 72.5,391.5 C 72.5,401.167 72.5,410.833 72.5,420.5C 66.1667,420.5 59.8333,420.5 53.5,420.5C 53.5,413.833 53.5,407.167 53.5,400.5C 56.2456,403.305 59.5789,404.139 63.5,403C 67.5095,399.839 70.5095,396.006 72.5,391.5 Z"/></g>
<g><path style="opacity:1" fill="#c76219" d="M 127.5,382.5 C 127.5,385.5 127.5,388.5 127.5,391.5C 127.5,393.833 127.5,396.167 127.5,398.5C 161.833,398.5 196.167,398.5 230.5,398.5C 196.004,399.498 161.337,399.832 126.5,399.5C 126.178,393.642 126.511,387.975 127.5,382.5 Z"/></g>
<g><path style="opacity:1" fill="#94192e" d="M 273.5,337.5 C 263.167,337.5 252.833,337.5 242.5,337.5C 242.5,361.167 242.5,384.833 242.5,408.5C 242.5,420.5 242.5,432.5 242.5,444.5C 252.833,444.5 263.167,444.5 273.5,444.5C 263.013,445.494 252.346,445.828 241.5,445.5C 241.5,409.167 241.5,372.833 241.5,336.5C 252.346,336.172 263.013,336.506 273.5,337.5 Z"/></g>
</svg>
